<svg width="41" height="41" viewBox="0 0 41 41" fill="none" xmlns="http://www.w3.org/2000/svg">
<path d="M12.4 20.5C16.0753 20.5 19.05 17.4666 19.05 13.7188C19.05 9.9709 16.0753 6.9375 12.4 6.9375C8.72469 6.9375 5.75 9.9709 5.75 13.7188C5.75 17.4666 8.72469 20.5 12.4 20.5ZM16.96 22.4375H16.4672C15.2322 23.043 13.8606 23.4062 12.4 23.4062C10.9394 23.4062 9.57375 23.043 8.33281 22.4375H7.84C4.06375 22.4375 1 25.5617 1 29.4125V31.1562C1 32.7607 2.27656 34.0625 3.85 34.0625H20.95C22.5234 34.0625 23.8 32.7607 23.8 31.1562V29.4125C23.8 25.5617 20.7362 22.4375 16.96 22.4375ZM29.5 20.5C32.6469 20.5 35.2 17.8965 35.2 14.6875C35.2 11.4785 32.6469 8.875 29.5 8.875C26.3531 8.875 23.8 11.4785 23.8 14.6875C23.8 17.8965 26.3531 20.5 29.5 20.5ZM32.35 22.4375H32.1244C31.2991 22.7281 30.4262 22.9219 29.5 22.9219C28.5737 22.9219 27.7009 22.7281 26.8756 22.4375H26.65C25.4387 22.4375 24.3225 22.7947 23.3428 23.3699C24.7916 24.9623 25.7 27.0754 25.7 29.4125V31.7375C25.7 31.8707 25.6703 31.9979 25.6644 32.125H36.15C37.7234 32.125 39 30.8232 39 29.2188C39 25.4709 36.0253 22.4375 32.35 22.4375V22.4375Z" fill="#09558B"/>
</svg>
