<svg width="41" height="41" viewBox="0 0 41 41" fill="none" xmlns="http://www.w3.org/2000/svg">
<path d="M14.1497 6.89411C14.0314 7.07736 13.9398 7.27391 13.8704 7.50593C13.9694 7.33746 14.0551 7.19116 14.1408 7.04485C14.1482 7.0478 14.1556 7.05224 14.1615 7.05519C14.1526 7.0951 14.1438 7.135 14.1349 7.1749C14.1334 7.18229 14.1319 7.18967 14.129 7.19706C13.8866 8.26554 13.8245 9.36653 13.931 10.4572L14.1541 12.7567C14.1763 12.9828 14.1896 13.2089 14.2044 13.435C14.2797 14.5538 14.7526 15.6104 15.6408 16.6464C15.6659 16.6759 15.6896 16.7173 15.6999 16.7528C16.0118 17.7341 16.4699 18.5277 17.0994 19.175C18.0482 20.1489 19.1743 20.6646 20.3566 20.6661H20.3581C21.5359 20.6661 22.6576 20.1548 23.6019 19.1868C24.2064 18.5676 24.6542 17.8094 24.9719 16.871C25.0074 16.7676 25.0739 16.6508 25.1537 16.5547C26.0729 15.439 26.5222 14.304 26.5207 13.0966C26.5207 13.0138 26.5207 12.9296 26.5222 12.8454L26.5399 8.66899C26.5192 8.53008 26.4985 8.38969 26.4778 8.24781C26.5 8.30397 26.5207 8.35865 26.5428 8.41185C26.5813 8.50791 26.6167 8.60101 26.6507 8.69264C26.7025 8.83451 26.7453 8.97934 26.7926 9.12269C26.7956 9.09609 26.7926 9.07096 26.7867 9.04584C26.6936 8.59362 26.5827 8.14732 26.3832 7.72761C26.3685 7.6951 26.3522 7.66111 26.3389 7.6286V7.62712C26.3123 7.56653 26.2857 7.50446 26.2635 7.44091C26.197 7.26209 26.132 7.08327 26.067 6.90297C26.0182 6.76701 25.968 6.63106 25.9192 6.49362C25.9103 6.46849 25.9 6.44485 25.8926 6.41973C25.9029 6.41381 25.9133 6.40937 25.9222 6.40346C26.0906 6.66947 26.2591 6.93401 26.4261 7.20002C26.401 7.11135 26.3685 7.02268 26.333 6.93549C26.1808 6.56603 25.9842 6.22465 25.6872 5.94829C25.6251 5.89066 25.5689 5.8271 25.5217 5.75617C25.2217 5.30986 24.8625 4.93153 24.3704 4.70247C24.3556 4.69508 24.3409 4.68917 24.3276 4.68178C24.1015 4.58129 23.8724 4.4867 23.6463 4.38916C23.5886 4.36552 23.5325 4.3404 23.4763 4.31527C23.5916 4.32414 23.7054 4.33744 23.8192 4.35518C24.4635 4.45124 25.0709 4.667 25.6606 4.94631C25.6369 4.92267 25.6118 4.90493 25.5867 4.8872C24.8788 4.40838 24.0882 4.16897 23.2473 4.06996C23.2147 4.067 23.1822 4.06256 23.1497 4.05961C22.8675 4.03301 22.5837 4.02267 22.3133 3.91478C22.2083 3.87193 22.0945 3.84976 21.9837 3.82168C21.8566 3.78917 21.728 3.75665 21.6009 3.72562C21.5699 3.71823 21.5404 3.71084 21.5093 3.70345C21.5108 3.6872 21.5108 3.69311 21.5123 3.67685H22.9665C22.9561 3.64877 22.9428 3.6399 22.928 3.63695C22.2955 3.54532 21.6615 3.47734 21.0216 3.53498C20.8029 3.55419 20.5857 3.56453 20.3684 3.53498C20.2724 3.52168 20.1748 3.51725 20.0773 3.50986C20.0758 3.4936 20.0773 3.49803 20.0758 3.48178C20.5502 3.39311 21.0246 3.30443 21.5271 3.21133C21.0231 3.22315 20.5487 3.25714 20.0802 3.3399C19.8187 3.38571 19.563 3.46995 19.2985 3.50394C18.9231 3.55271 18.5418 3.57192 18.162 3.60443C18.9142 3.24679 19.7182 3.09163 20.5384 3C20.3847 3.00443 20.2295 2.99704 20.0773 3.00591C19.5098 3.03546 18.9467 3.10197 18.3955 3.2527C17.9389 3.37684 17.5058 3.55123 17.1334 3.85419C17.0625 3.91182 16.9768 3.95173 16.8985 3.99902C16.8911 3.9872 16.8822 3.97537 16.8748 3.96355C17.0462 3.83941 17.2103 3.7064 17.3891 3.59409C17.5709 3.48029 17.7645 3.37981 17.9581 3.28818C18.1458 3.19951 18.3423 3.12857 18.5359 3.05024C18.1546 3.14778 17.7866 3.28227 17.432 3.45518C16.73 3.79951 16.2009 4.37439 15.5935 4.84582C15.592 4.8473 15.5906 4.84877 15.5906 4.85025C15.5507 4.9138 15.5078 4.97587 15.4738 5.04238C15.4221 5.13991 15.3837 5.24484 15.326 5.33794C15.2994 5.3808 15.2433 5.40888 15.193 5.42957C15.094 5.47095 14.9876 5.49459 14.8886 5.53745C14.3654 5.77243 14.058 6.18179 13.9265 6.73303C14.0521 6.48327 14.2103 6.25716 14.4423 6.05469C14.3787 6.27046 14.327 6.46258 14.2664 6.65027C14.2369 6.74189 14.197 6.82021 14.1497 6.89411ZM15.4177 12.8025L15.4236 12.7345C15.428 12.6754 15.4339 12.5941 15.4443 12.5424C15.7369 12.4449 15.9098 12.1641 15.9201 11.7695C15.9275 11.4887 15.929 11.2035 15.9319 10.9286C15.9349 10.6212 15.9379 10.3094 15.9467 9.99757C15.9467 9.47442 16.3709 9.05471 16.8896 9.05471C16.8985 9.05471 16.9088 9.05471 16.9177 9.05471L17.3906 9.06801C17.7807 9.0355 18.1738 9.03993 18.5669 9.0355C18.9172 9.03106 19.2689 9.03403 19.6206 9.03403H20.6551C21.032 9.03403 21.4088 9.0355 21.7857 9.03403C22.0635 9.03255 22.3428 9.02811 22.6207 9.02663C22.8615 9.02515 23.1024 9.02663 23.3433 9.02515C23.5768 9.02515 23.8088 9.02072 24.0379 9.09018C24.3039 9.17146 24.5019 9.32811 24.6172 9.57343C24.6911 9.73008 24.7251 9.90743 24.7753 10.0685C24.7783 10.0656 24.7813 10.0611 24.7842 10.0582C24.7916 10.3257 24.7916 10.5976 24.7916 10.8798C24.7916 11.1237 24.7901 11.3764 24.796 11.6276C24.7975 11.6941 24.7975 11.7621 24.796 11.8345V11.9764C24.796 12.2572 24.997 12.4996 25.2749 12.5498C25.2852 12.6015 25.2941 12.6739 25.297 12.7035C25.4108 13.7808 25.0709 14.7606 24.2271 15.7863C24.0527 15.9976 23.9167 16.24 23.834 16.4838C23.5753 17.2464 23.2192 17.8553 22.7433 18.3429C22.0325 19.0715 21.2108 19.4572 20.3655 19.4572H20.364C19.5142 19.4572 18.6881 19.0671 17.9728 18.3326C17.4763 17.8227 17.1127 17.1858 16.8586 16.3878C16.7994 16.1986 16.6945 16.0109 16.5645 15.8602C15.6911 14.8464 15.3275 13.874 15.4177 12.8025Z" fill="#09558B"/>
<path d="M24.468 29.0973C24.1577 30.3431 24.9158 31.6052 26.1616 31.9156C27.4074 32.2259 28.668 31.4678 28.9798 30.222C29.2902 28.9762 28.5321 27.7141 27.2877 27.4037C26.0404 27.0934 24.7783 27.8515 24.468 29.0973ZM27.7917 29.9264C27.6439 30.5161 27.0468 30.8752 26.4572 30.7289C25.8675 30.5811 25.5084 29.984 25.6547 29.3944C25.8025 28.8047 26.3995 28.4456 26.9892 28.5934C27.5803 28.7382 27.9394 29.3353 27.7917 29.9264Z" fill="#09558B"/>
<path d="M33.6483 36.6471L32.9626 29.4767C32.5902 26.3954 31.0296 24.4668 28.4433 23.4929L28.4271 23.4885C28.5276 23.9259 28.5675 24.3781 28.5778 24.7668C28.6 25.5619 28.5054 26.4574 28.334 27.1387C29.4054 27.8259 29.9374 29.1427 29.6271 30.3826C29.2281 31.9846 27.5995 32.9629 25.9975 32.5639C24.3955 32.1649 23.4187 30.5363 23.8177 28.9343C24.2064 27.3766 25.7552 26.4101 27.3128 26.7249C27.5463 25.7909 27.632 24.8791 27.5478 24.2022C27.5005 23.8106 27.3985 23.4899 27.2448 23.249C27.2286 23.2239 27.2138 23.2003 27.1975 23.1751L27.097 23.15C27.0719 23.1234 27.0483 23.0998 27.0246 23.0747C26.9626 23.0613 26.9005 23.0466 26.8384 23.0333C26.033 22.8663 24.9483 21.6544 24.4872 20.6658L24.3098 20.7988L22.6428 24.4875L21.5684 26.8653L21.4739 26.8668L21.4635 26.7944L21.1532 24.5584V24.5569L21.1221 24.3338L21.7014 23.7545L21.7029 23.753L21.8034 23.654C22.0945 23.3628 22.1448 22.9003 21.9083 22.5633C21.6719 22.2249 21.2803 22.0047 20.8354 22.0047H19.829C19.3857 22.0047 18.994 22.2249 18.7576 22.5633C18.5211 22.9017 18.5714 23.3628 18.8625 23.654L19.0162 23.8077L19.5423 24.3338L19.5231 24.4742L19.2068 26.7515L19.1876 26.8904H19.1433L16.1773 20.6673C15.7162 21.6544 14.6314 22.8678 13.826 23.0348C13.662 23.0687 13.5024 23.1057 13.3443 23.1456L13.0295 23.2416C13.1728 23.8904 13.3827 24.851 13.4078 24.9205C13.4462 25.0313 13.4906 25.1555 13.5349 25.2958C13.6177 25.5574 13.73 25.9092 13.8349 26.3185C14.364 26.2402 15.0098 26.2919 15.4324 26.3673C16.3783 26.589 17.0802 27.1092 17.296 27.5097C17.3063 27.5156 17.3182 27.5215 17.3285 27.5274C17.3684 27.5481 17.4083 27.5688 17.4497 27.5909C18.332 28.089 18.9852 28.8929 19.3384 29.92C19.3975 30.0944 19.396 30.2836 19.3339 30.4535C19.3177 30.4993 19.2955 30.5437 19.2704 30.585C19.2985 30.6885 19.3221 30.7919 19.3428 30.8924C19.5586 31.9195 19.5009 32.9496 19.1802 33.7934C19.0044 34.2545 18.7561 34.6417 18.4398 34.9432C18.5196 35.3599 18.2625 35.7649 17.862 35.8476C17.4586 35.9319 16.7655 35.7338 16.6738 35.2964C16.5822 34.859 17.1364 34.3993 17.5398 34.3151C17.6492 34.2915 17.763 34.2959 17.8709 34.324C18.6482 33.5895 18.7679 32.1693 18.5359 31.0609C18.527 31.0151 18.5167 30.9708 18.5049 30.9264C18.2462 30.8732 18.026 30.6811 17.9344 30.418C17.4187 28.9195 16.0221 28.2988 14.1024 28.7156L14.095 28.717L14.0861 28.7185C12.3142 29.1604 11.4068 30.2377 11.5309 31.754C11.5546 32.0304 11.429 32.2964 11.2132 32.4486C11.2206 32.4929 11.2295 32.5387 11.2398 32.5831C11.4718 33.6915 12.1516 34.9447 13.158 35.3053C13.2467 35.2358 13.3487 35.187 13.458 35.1649C13.8615 35.0806 14.5546 35.2787 14.6462 35.7176C14.7379 36.155 14.1837 36.6146 13.7787 36.6989C13.3782 36.7831 12.9807 36.5156 12.8861 36.1003C12.4753 35.9511 12.0925 35.6969 11.7467 35.3452C11.1157 34.7008 10.6487 33.7787 10.4344 32.7516C10.4137 32.6511 10.3945 32.5491 10.3782 32.4412C10.1905 32.3082 10.0679 32.0954 10.0487 31.8589C9.96295 30.8082 10.2186 29.8358 10.7905 29.0407C10.6871 28.4614 11.4659 27.2363 12.7827 26.6348C12.6837 26.2431 12.5758 25.9032 12.4871 25.6239L12.4827 25.6121C12.428 25.4407 12.3777 25.2796 12.3334 25.1259C12.2684 24.8954 12.128 24.2392 12.0157 23.5697C9.54916 24.5673 8.06097 26.4752 7.69742 29.4752L7.00431 36.7698C6.98215 37.2028 7.03387 37.2767 7.43437 37.4319C7.62353 37.5043 7.81417 37.5767 8.00777 37.6388C9.76492 38.2166 11.5827 38.521 13.4167 38.6747C15.3349 38.8358 17.2591 38.9304 18.5359 38.9999H18.5448L21.762 38.9925L22.1211 38.991C24.7236 38.9215 26.8591 38.7752 28.9842 38.4634C30.3941 38.2565 31.7892 37.9757 33.1296 37.4703C33.6468 37.2782 33.6897 37.2028 33.6483 36.6471Z" fill="#09558B"/>
</svg>
