<svg width="41" height="41" viewBox="0 0 41 41" fill="none" xmlns="http://www.w3.org/2000/svg">
<path d="M14.8261 19.7692C13.1541 19.7692 11.5505 19.1209 10.3682 17.9668C9.18594 16.8127 8.52174 15.2475 8.52174 13.6154V8.69231C8.52174 8.36589 8.65458 8.05284 8.89104 7.82202C9.1275 7.59121 9.4482 7.46154 9.78261 7.46154H11.0435C11.3779 7.46154 11.6986 7.33187 11.935 7.10105C12.1715 6.87024 12.3043 6.55719 12.3043 6.23077C12.3043 5.90435 12.1715 5.5913 11.935 5.36048C11.6986 5.12967 11.3779 5 11.0435 5H9.78261C8.7794 5 7.81728 5.38901 7.1079 6.08145C6.39852 6.77389 6 7.71305 6 8.69231V13.6154C6.00162 15.0058 6.34897 16.3751 7.01223 17.6056C7.67548 18.8362 8.63481 19.8912 9.80782 20.68C10.9348 21.6499 11.8488 22.8326 12.4946 24.1568C13.1404 25.481 13.5046 26.9192 13.5652 28.3846C13.5652 30.6696 14.4951 32.8609 16.1503 34.4766C17.8055 36.0923 20.0505 37 22.3913 37C24.7321 37 26.9771 36.0923 28.6323 34.4766C30.2875 32.8609 31.2174 30.6696 31.2174 28.3846V26.9815C32.4059 26.682 33.4418 25.9696 34.1307 24.9778C34.8197 23.9861 35.1145 22.7832 34.9598 21.5945C34.8051 20.4058 34.2116 19.3129 33.2905 18.5208C32.3695 17.7287 31.1841 17.2917 29.9565 17.2917C28.729 17.2917 27.5436 17.7287 26.6225 18.5208C25.7014 19.3129 25.1079 20.4058 24.9532 21.5945C24.7986 22.7832 25.0933 23.9861 25.7823 24.9778C26.4712 25.9696 27.5071 26.682 28.6956 26.9815V28.3846C28.6956 30.0167 28.0314 31.582 26.8491 32.736C25.6668 33.8901 24.0633 34.5385 22.3913 34.5385C20.7193 34.5385 19.1157 33.8901 17.9335 32.736C16.7512 31.582 16.087 30.0167 16.087 28.3846C16.1508 26.9174 16.5189 25.4781 17.1691 24.1538C17.8193 22.8295 18.738 21.6477 19.8696 20.68C21.0379 19.8884 21.9923 18.8322 22.6511 17.6019C23.3099 16.3715 23.6534 15.0036 23.6522 13.6154V8.69231C23.6522 7.71305 23.2536 6.77389 22.5443 6.08145C21.8349 5.38901 20.8728 5 19.8696 5H18.6087C18.2743 5 17.9536 5.12967 17.7171 5.36048C17.4807 5.5913 17.3478 5.90435 17.3478 6.23077C17.3478 6.55719 17.4807 6.87024 17.7171 7.10105C17.9536 7.33187 18.2743 7.46154 18.6087 7.46154H19.8696C20.204 7.46154 20.5247 7.59121 20.7611 7.82202C20.9976 8.05284 21.1304 8.36589 21.1304 8.69231V13.6154C21.1304 14.4235 20.9674 15.2237 20.6505 15.9704C20.3337 16.717 19.8693 17.3954 19.2839 17.9668C18.6985 18.5382 18.0035 18.9915 17.2387 19.3008C16.4738 19.6101 15.654 19.7692 14.8261 19.7692M29.9565 24.6923C29.2877 24.6923 28.6463 24.433 28.1734 23.9713C27.7005 23.5097 27.4348 22.8836 27.4348 22.2308C27.4348 21.5779 27.7005 20.9518 28.1734 20.4902C28.6463 20.0286 29.2877 19.7692 29.9565 19.7692C30.6253 19.7692 31.2667 20.0286 31.7396 20.4902C32.2126 20.9518 32.4782 21.5779 32.4782 22.2308C32.4782 22.8836 32.2126 23.5097 31.7396 23.9713C31.2667 24.433 30.6253 24.6923 29.9565 24.6923Z" fill="#09558B"/>
</svg>
